<?xml version="1.0" encoding="utf-8"?>
<!DOCTYPE svg PUBLIC "-//W3C//DTD SVG 1.1//EN" "http://www.w3.org/Graphics/SVG/1.1/DTD/svg11.dtd">
<svg version="1.1" id="图形" xmlns="http://www.w3.org/2000/svg" xmlns:xlink="http://www.w3.org/1999/xlink" x="0px" y="0px" width="1024px" height="1024px" viewBox="0 0 1024 1024" enable-background="new 0 0 1024 1024" xml:space="preserve">
  <path fill="#272636" d="M822.624 290.624c-12.512 12.512-32.736 12.512-45.248 0L544 57.248 544 620c0 17.664-14.336 32-32 32s-32-14.336-32-32l0-562.752-233.376 233.376c-12.512 12.512-32.736 12.512-45.248 0s-12.512-32.736 0-45.248l288-287.968c2.944-2.976 6.496-5.312 10.432-6.944C503.68-51.168 507.84-52 512-52s8.32 0.832 12.224 2.464c3.936 1.632 7.456 3.968 10.432 6.944l288 287.968C835.136 257.888 835.136 278.112 822.624 290.624z" transform="translate(0, 812) scale(1, -1)"/>
</svg>
